<?xml version="1.0" standalone="no"?>
<!DOCTYPE svg PUBLIC "-//W3C//DTD SVG 20010904//EN"
 "http://www.w3.org/TR/2001/REC-SVG-20010904/DTD/svg10.dtd">
<svg version="1.0" xmlns="http://www.w3.org/2000/svg"
 width="651.000000pt" height="651.000000pt" viewBox="0 0 651.000000 651.000000"
 preserveAspectRatio="xMidYMid meet">
<metadata>
Created by potrace 1.14, written by Peter Selinger 2001-2017
</metadata>
<g transform="translate(0.000000,651.000000) scale(0.100000,-0.100000)"
fill="#000000" stroke="none">
<path d="M3008 6435 c-1 -2 -36 -6 -76 -9 -71 -6 -112 -11 -177 -21 -16 -3
-48 -7 -70 -11 -244 -36 -544 -134 -810 -264 -390 -191 -690 -427 -1025 -805
-228 -258 -448 -627 -571 -959 -66 -178 -138 -468 -154 -621 -4 -33 -8 -62
-10 -65 -10 -16 -19 -212 -20 -395 0 -189 7 -337 20 -435 2 -19 7 -55 10 -80
62 -498 256 -992 549 -1400 175 -244 397 -471 688 -706 41 -32 232 -157 309
-202 178 -103 394 -196 597 -258 117 -36 135 -41 182 -50 14 -3 50 -11 80 -19
30 -7 78 -17 105 -21 28 -4 57 -9 65 -10 8 -2 36 -6 61 -9 25 -3 55 -7 66 -9
100 -20 569 -28 748 -13 114 9 304 33 375 47 30 6 70 13 88 16 210 34 563 152
802 268 166 80 411 228 518 313 173 136 260 212 376 329 110 111 237 253 314
355 11 14 0 26 -80 85 -51 38 -98 73 -105 79 -24 20 -40 32 -203 154 -91 69
-247 187 -346 262 l-182 138 -53 -62 c-165 -193 -413 -408 -604 -523 -214
-128 -509 -240 -735 -278 -180 -30 -246 -34 -455 -31 -240 4 -248 5 -415 39
-258 54 -505 154 -740 300 -291 180 -510 427 -662 746 -94 196 -179 459 -212
660 l-6 36 2567 -1 c1413 0 2573 1 2579 2 18 6 4 376 -21 568 -3 22 -8 58 -11
80 -4 36 -16 108 -28 175 -14 81 -40 191 -72 305 -34 124 -45 158 -65 197 -5
10 -9 24 -9 31 0 45 -166 394 -265 557 -174 289 -449 603 -715 820 -30 25 -57
47 -60 51 -9 10 -183 134 -255 181 -238 155 -546 292 -805 360 -161 42 -250
59 -500 94 -47 7 -575 15 -582 9z m492 -1178 c14 -4 48 -9 75 -13 28 -3 59 -8
70 -9 54 -8 286 -75 322 -94 10 -5 68 -32 128 -61 376 -180 668 -485 939 -982
20 -36 36 -68 36 -70 0 -2 -828 -4 -1840 -4 -1601 0 -1840 2 -1840 14 0 43
216 406 317 532 63 78 263 271 342 329 92 68 215 143 301 183 144 67 376 139
499 154 25 3 48 7 51 9 4 2 45 7 91 11 46 3 85 7 87 9 6 5 397 -2 422 -8z"/>
</g>
</svg>
